<svg version="1" xmlns="http://www.w3.org/2000/svg" width="682.667" height="682.667" viewBox="0 0 512.000000 512.000000"><path d="M120.2 39c-1.3.6-2.8.8-3.2.5-.5-.3-1-.2-1.2.3-.1.4-2.5 2.2-5.3 4-5.7 3.7-11.5 8.7-11.5 10.1 0 .5-.7 1.4-1.5 2.1-2.6 2.1-6.5 10.1-9.2 18.7-2.2 7.2-2.5 9.7-2.1 16.6.3 4.5 1.4 11.1 2.3 14.6l1.8 6.3-2.4 1.8c-1.3 1-2.8 1.6-3.3 1.3-.5-.3-.6-.2-.3.3.6 1.1-11.7 15.5-12.7 14.8-.3-.2-.4-.1-.1.3.3.3-.6 2-1.9 3.7-1.2 1.7-4.3 6.7-6.6 11.1-2.4 4.4-4.8 8.2-5.2 8.3-.5.2-.6.7-.3 1.2.4.7-.7 3.7-5.5 14.5-1.5 3.4-1.7 3.9-1.9 5.9 0 .8-.7 2.1-1.3 2.8-.7.7-1.4 2-1.5 2.8-.1.8-1.4 6.2-2.8 12-1.8 7.1-2.6 13-2.5 18.3.1 4.2-.2 8.2-.6 8.8-.3.6-.6 5.7-.5 11.4.1 6.3-.2 10.6-.8 11-.6.3-1.1 1.7-1.1 3.1 0 2.7-5.7 13.4-7.1 13.4-.5 0-1.1 1.1-1.5 2.5-.3 1.4-1 2.5-1.6 2.5-.5 0-.6.5-.3 1 .3.6-1 3.7-3.1 7-2 3.3-4 7.7-4.5 9.7-1.5 6.6-4 16.6-5.7 22.3-1.2 4.3-1.6 11.1-1.8 32-.1 14.6.2 27 .7 27.6.5.6 1 3.4 1.3 6.3.2 2.9.7 5.5 1 5.8.3.4.6 1.8.6 3.3 0 2.3 4.7 13.1 7.2 16.5.4.5 3 4 5.7 7.7s4.6 7 4.3 7.4c-.4.4-.2.4.5 0 .7-.3 2.7 1.3 5 4.1 7.7 9.5 14.8 14.9 31.3 24 7 3.9 12.2 6.2 13.4 5.9 1.1-.3 5.7 1.5 10.7 4 4.9 2.4 9 4.4 9.1 4.4.2-.1 3.5 1.1 7.3 2.6 7.8 2.9 12.5 4.3 26.9 7.9 5.4 1.4 10.3 2.8 10.9 3.2.6.4 2 .8 3.2.9 1.1.1 4.7.9 8 1.7 15.4 3.9 56.2 6.2 108 6.2 36.5 0 61.9-1.6 73.9-4.6 4.3-1.1 8.5-1.8 9.3-1.5.8.4 1.1.1.7-.5-.4-.6.1-1 1.2-.8 1.1.1 2.6-.1 3.4-.4 3.8-1.6 14.4-3.8 15.7-3.3.8.3 1.2.2.9-.3-.3-.5.8-1.1 2.6-1.5 1.7-.3 5.2-1.9 7.7-3.4 4.3-2.7 8.3-4.1 12.4-4.5.9-.1 1.7-.4 1.7-.8s3.6-2.1 8.1-3.9c4.5-1.8 9.4-4.4 11-5.8 1.6-1.3 3.6-2.1 4.4-1.8.8.3 1.5.1 1.5-.5 0-.5 1.6-1.7 3.5-2.5 3-1.2 9.6-6.4 17-13.4 6.6-6.2 18-14.8 18.8-14.3.6.3.7.1.3-.5-.3-.6.4-1.9 1.6-2.9 1.3-1 2.8-2.6 3.3-3.5.6-.8 3.5-4.5 6.5-8.1 10.2-12.1 14.9-19.8 17.6-29.3 1.4-4.9 2.9-9.4 3.2-9.9.4-.6.7-1.5.7-2 .1-.6.4-2.6.7-4.5 1.7-9.2 2.9-29.7 1.9-34-.5-2.5-1.1-8.4-1.3-13.2-.2-4.9-.5-8.8-.8-8.8-1 0-4.3-16.9-3.6-18.5.3-.9.2-1.3-.4-1-.6.3-1-.3-1-1.5 0-2.8-4.8-12.1-10.5-20.5-3.2-4.7-4.5-7.5-4.2-9.1.2-1.3.1-2.1-.4-1.9-1.5 1-2.4-4.2-2.5-15.5-.2-12.3-.5-16.2-1.5-17-.9-.7-7.2-27.8-7.3-31.2-.1-1.4-.3-2.4-.6-2.2-.7.8-4-9.7-3.4-10.7.3-.5.1-.9-.4-.9-1.2 0-3.4-5.9-2.6-7.1.3-.5.1-.9-.4-.9s-1.7-1.9-2.7-4.3c-1-2.3-2.4-4.9-3.1-5.7-.7-.8-1.4-2.2-1.6-3-.2-.8-1.1-2.3-2.1-3.5-4.8-5.3-7.6-9.3-6.9-10 .4-.5.2-.5-.4-.2-.6.3-2.5-.9-4.3-2.7l-3.2-3.3 2.5-3.1c1.4-1.6 2.6-3.3 2.6-3.8 0-.4 1.2-3.7 2.6-7.2 1.4-3.6 2.8-7.9 3.1-9.6.8-5 .9-19.5.1-18.9-.5.2-.8-.3-.8-1.2 0-.9-1.2-4.2-2.7-7.3-1.5-3.1-2.5-6.1-2.4-6.7.1-.5-.1-.7-.5-.3-.7.7-3.3-2-3.1-3.2.1-.3-2.5-2.9-5.6-5.9-3-3-5.3-5.9-5-6.4.3-.6.1-.7-.5-.3-1.1.7-7.5-2.9-10.5-5.9-1-.9-1.7-1.4-1.7-1.2 0 .2-2.6-.2-5.7-.9-3.2-.8-9.9-1.4-14.9-1.4-8.7 0-9.4.2-18.3 4.5-7.4 3.6-10.9 6.1-17.9 12.9-4.8 4.7-8.9 8.1-9 7.5-.2-.5-.8-.7-1.3-.4-.5.3-1.9 0-3.1-.7-1.3-.7-2.5-1.3-2.8-1.3-1.8-.3-8-3-8-3.5 0-.4-.6-.7-1.2-.8-5.3-.7-11.5-1.9-12.4-2.5-.6-.3-3.7-.9-7-1.1-3.2-.3-7.5-1-9.4-1.6-1.9-.5-6.1-1-9.2-1-3.1 0-5.9-.3-6.2-.8-1.2-1.9-44.5 0-56.4 2.5-4 .8-7.9 1.2-8.7.9-.8-.3-1.5-.1-1.5.5 0 .7-1.4 1-3.4.7-1.9-.2-3.2 0-3 .4.3.4-.7.9-2.3.9-7.8.4-15.8 2.3-22.8 5.4-3.2 1.4-6.4 2.5-7.1 2.5-1.5 0-3.9-3.8-3-4.7.3-.3-.1-1.1-.9-1.7-.7-.6-1.5-1.8-1.7-2.6-.4-2.2-8.4-9.9-14.5-14-2.8-1.9-4.9-3.8-4.7-4.1.6-1.1-31.9-.9-34.4.1zm164.6 23.5c2.8 0 5.2.3 5.2.6s3.7 1.1 8.3 1.8c13.3 2 28.4 6.2 40.2 11.1 9.9 4.1 16.7 7.6 18.1 9.1.9 1.1 2.1 1.9 2.7 1.9 3.2 0 33.2 20.5 48.2 33 3.3 2.7 8.3 6.5 11.1 8.5 4.7 3.2 11.1 9.6 17.2 16.9 4.6 5.5 13.1 23.3 16.5 34.6 4.1 13.6 4.5 16.6 5.7 46.5l.8 22.8 7.1 7.1c6.8 6.9 7.3 7.7 11.1 18.5 6.7 19 7.5 24.6 7.5 49.6-.1 23.7-.8 29-6.2 42.4-3.8 9.8-7.9 15.3-21 28.6-18.6 19-41.5 34.7-65 44.6-5.4 2.3-13.6 5.8-18.3 8-9.3 4.2-17 6.7-30 9.8-4.7 1.1-12.5 3-17.5 4.2-8.5 2.1-10.7 2.2-38 1.9-32.9-.4-49.3-.5-68-.3-19.4.3-30.8-.9-53.1-5.5-21.7-4.5-40.9-10.5-67.3-20.9-40.4-15.9-55.1-27.1-67.4-51.8-4-7.9-4.7-10.3-5.6-19-1.5-14.3 0-61.9 2.1-66 .9-1.7 1.9-5.5 2.4-8.5.4-3 .8-5.7.9-6 .2-1.4 7.7-17.1 13.8-28.9l6.9-13.4-1.2-15.9c-1.3-17.3-1.2-19.2 2.7-31.8 1.5-4.7 2.7-8.7 2.8-9 .2-.7 1.2-3 7.7-19 3.3-8 7-16.4 8.4-18.7 4.1-7 16.8-23.6 21.1-27.5 2.3-2 3.8-4 3.5-4.4-.4-.4-.2-.4.4-.1.6.4 2.2-.5 3.5-1.9 3.3-3.5 22.7-17.2 26.9-18.9.8-.4 5.3-2.4 10-4.5s11.2-4.8 14.5-6c3.3-1.2 8.3-3.2 11.2-4.6 2.9-1.3 8.1-3.1 11.5-4 3.5-.8 7.7-2.2 9.3-3 5.9-2.9 23.4-6.5 46.4-9.4 12.9-1.7 23.7-3.2 23.9-3.5.3-.3 5.7-.2 12.1.3 6.4.4 14 .7 16.9.7z"/><path d="M311.4 128.2c-1.4 6.6-.6 11 2.8 14.5 1.7 1.8 3.5 3 3.9 2.7.4-.2 1.6.4 2.6 1.4 1.4 1.5 3.3 1.9 9 1.9 4.2 0 7.6-.4 8.2-1.1 1.4-1.8 2.4-7.6 1.2-7.6-.6 0-.8-.6-.5-1.4 1.5-3.8-3.5-7.1-10.3-6.8-1.8.1-3.3-.3-3.3-.8 0-.6-.5-.9-1.2-.8-.6.2-1.8-.9-2.5-2.5-1.2-2.2-2.1-2.7-5.3-2.7-3.5 0-3.9.3-4.6 3.2zM175.1 130.7c-3 2.8-4 3.1-9.3 3.2-9.6 0-9.9.3-9.6 7.4.3 6.1.4 6.2 3.2 6.2 1.5.1 3.4.9 4.1 1.8.9 1.3 2.7 1.7 7.4 1.7 3.4 0 6-.4 5.7-.8-.5-.8 2.1-3.6 3.7-3.9.4-.1 2.2-.7 4-1.4 3.2-1.1 3.3-1.3 3.2-6.9-.2-10.6-5.5-13.7-12.4-7.3zM320.8 158.4c-6.5 1.8-11.8 5.5-17.7 12.6-5.6 6.7-7.1 11-7 19.6.1 9 7.7 29.4 14.8 39.8 1.5 2.3 4.4 6.7 6.5 9.9 2 3.1 4.6 6.9 5.9 8.4 15.3 18.4 21.5 24 30.4 27.3 5.1 1.9 6.4 2.1 10.9 1.1 4.8-1.1 10.6-4.6 16.4-9.8 1.4-1.3 2.9-2.3 3.5-2.3 1.6 0 3.8-4.1 5.1-9.8 1.4-6 .2-18.2-2.1-21.8-.8-1.2-2.3-4.6-3.3-7.5-3.2-8.8-6.8-16.8-8.4-18.7-.9-.9-1.9-2.8-2.3-4.2-.4-1.4-1.9-3.8-3.2-5.4-1.4-1.7-2.9-4-3.3-5.2-.5-1.2-2.5-4.5-4.4-7.2-2-2.7-3.6-5.2-3.6-5.5 0-.4-.9-1.7-2-2.9-1.1-1.3-3.7-4.3-5.7-6.6-4.2-4.9-12.5-10.2-16.3-10.2-1.4-.1-3.6-.7-5-1.5-3-1.7-3.2-1.7-9.2-.1zm20.2 44.7c0 .5-.5.9-1.1.9-.5 0-.7.4-.4 1 .3.5 0 .7-.9.4-2.2-.8-3 3.2-1.2 6.6 1.6 3.4 1.6 3.4-1.8 1.9-2.9-1.3-4.3-5.8-2.7-8.7.6-1.1.7-2.3.3-2.7-.4-.5-.1-.5.5-.1.7.4 2 .3 3-.2 1.8-1.1 4.3-.5 4.3.9zM160.5 161.4c-5.3 2.5-17 13.7-19.8 19.1-.8 1.6-2.7 4.1-4.1 5.4-1.4 1.4-2.6 2.9-2.6 3.3 0 .5-1.2 2.8-2.8 5.1-2.9 4.4-6.2 11.1-6.2 12.6 0 .5-1.6 3.3-3.5 6.2-1.9 3-3.5 6.1-3.5 7 0 .9-.9 3.7-2 6.2-1.4 3.2-2.2 7.8-2.7 15.6-.6 10.5-.5 11.2 2 16.3 3.5 7.1 8 12.4 12.5 14.5 6.4 3.1 29.2 1 29.2-2.7 0-.9 1.4-2.4 3-3.3 1.7-1 3-2.2 3-2.7s.8-1.7 1.8-2.7c1.1-1 4.7-5.4 8.1-9.8 3.5-4.4 6.9-8.5 7.8-9.2.8-.6 1.6-1.8 1.7-2.7.1-.9 1.1-2.6 2.3-3.8 3.1-3.5 10.5-18.7 9.7-20-.4-.6-.3-.8.3-.5 2.1 1.3 3.6-5 4-17 .6-23.4-5.5-32.9-24.4-37.8-7.2-1.9-7.8-1.9-13.8.9zm7.5 46.7c0 .5-.8.9-1.8.9-4.2 0-5.7 5.7-2.5 9.2 1.7 1.9 1.6 1.9-1.2 1.2-4.2-1-5.5-2.2-5.5-5.3 0-3.9 2.5-6.9 6.3-7.3 3.6-.4 4.7-.1 4.7 1.3zM262 240.3c-1.4.7-6.9 3-12.3 5.1-9.5 3.8-10 3.8-14.5 2.6-2.6-.7-8.1-1.5-12.2-1.7-6.7-.4-7.8-.2-9.4 1.6-1.1 1.2-2.4 2.1-3.1 2.1-.9 0-10.5 10.1-12.7 13.4-1.5 2.3-.7 8.1 1.5 10.7 2.3 2.7 6.6 5.5 8 5.1.4-.1.7.2.7.8 0 .5 1.9 2 4.1 3.2 2.3 1.3 5.2 2.9 6.4 3.5 2.2 1.3 12.9 14.9 13.1 16.8 0 .5.2 1.6.2 2.4.1.8 1 1.1 2.2.8 1.4-.4 3.3.8 6.8 4.2 4.1 4 4.6 5 4.1 7.6-.4 1.7-.7 8.5-.8 15.2-.1 9.1.2 12.5 1.2 13.5.8.7 1.2 2.1.9 3.1-.4 1.4 0 1.8 1.4 1.5 1.7-.3 1.9-1.4 2.1-9.8.2-5.2.4-14 .6-19.5l.3-10 4.3-4.5c4.5-4.7 15.1-19.2 15.1-20.6 0-.4 1.3-2.2 2.8-3.9 5-5.3 11.4-17.6 12-22.8.3-2.9.1-4.7-.6-4.7-.5 0-.8-.9-.5-1.9.3-1.2-.3-2.6-1.6-3.7-1.2-1-2.1-2.4-2.1-3 0-2.1-10.4-7.2-13.2-6.6-.5.1-.8-.3-.8-.8 0-1.3-1-1.3-4 .3z"/></svg>